<?xml version="1.0" standalone="no"?><svg xmlns="http://www.w3.org/2000/svg" viewBox="0 0 1440 320"><path fill="#f2c812" fill-opacity="1" d="M0,64L26.7,80C53.3,96,107,128,160,160C213.3,192,267,224,320,224C373.3,224,427,192,480,186.7C533.3,181,587,203,640,186.7C693.3,171,747,117,800,122.7C853.3,128,907,192,960,224C1013.3,256,1067,256,1120,261.3C1173.3,267,1227,277,1280,256C1333.3,235,1387,181,1413,154.7L1440,128L1440,0L1413.3,0C1386.7,0,1333,0,1280,0C1226.7,0,1173,0,1120,0C1066.7,0,1013,0,960,0C906.7,0,853,0,800,0C746.7,0,693,0,640,0C586.7,0,533,0,480,0C426.7,0,373,0,320,0C266.7,0,213,0,160,0C106.7,0,53,0,27,0L0,0Z"></path></svg>