<?xml version="1.0" standalone="no"?><svg xmlns="http://www.w3.org/2000/svg" viewBox="0 0 1440 320"><path fill="#f2c812" fill-opacity="1" d="M0,64L26.7,80C53.3,96,107,128,160,160C213.3,192,267,224,320,224C373.3,224,427,192,480,186.7C533.3,181,587,203,640,186.7C693.3,171,747,117,800,122.7C853.3,128,907,192,960,224C1013.3,256,1067,256,1120,261.3C1173.3,267,1227,277,1280,256C1333.3,235,1387,181,1413,154.7L1440,128L1440,320L1413.3,320C1386.7,320,1333,320,1280,320C1226.7,320,1173,320,1120,320C1066.7,320,1013,320,960,320C906.7,320,853,320,800,320C746.7,320,693,320,640,320C586.7,320,533,320,480,320C426.7,320,373,320,320,320C266.7,320,213,320,160,320C106.7,320,53,320,27,320L0,320Z"></path></svg>